{"title":"Carnage 2011 CAM XviD - MiSTERE","uid":6823676,"size":1561559794,"categoryP":"video","categoryS":"movies","magnet":"?xt=urn:btih:254ae0f6540ec92eafa9f92763b0fd023fc56dad&amp;dn=Carnage+2011+CAM+XviD+-+MiSTERE&amp;tr=udp%3A%2F%2Ftracker.openbittorrent.com%3A80&amp;tr=udp%3A%2F%2Fopen.demonii.com%3A1337&amp;tr=udp%3A%2F%2Ftracker.coppersurfer.tk%3A6969&amp;tr=udp%3A%2F%2Fexodus.desync.com%3A6969","seeders":0,"leechers":0,"uploader":"sceneline","files":107,"time":1321488060,"description":"- &lt;a href=&quot;\nhttp://www.Speed.Cd&quot; rel=&quot;nofollow&quot; target=&quot;_NEW&quot;&gt;\nhttp://www.Speed.Cd&lt;/a&gt;      fast  and The Hottest Private Tracker on the net\n\n   signup is open now\n\nPlease Seed back to make the speed Faster!!!\n\n------------------nfo--------------------------\n-Carnage 2011 CAM XviD - MiSTERE\n &lt;a href=&quot;\nhttp://www.imdb.com/title/tt1692486/&quot; rel=&quot;nofollow&quot; target=&quot;_NEW&quot;&gt;\nhttp://www.imdb.com/title/tt1692486/&lt;/a&gt;\n\nSource:\n       V: TNZ 720p\n       A: EVOUTiON\n\nVideo\nID                               : 0\nFormat                           : MPEG-4 Visual\nFormat profile                   : Advanced Simple@L5\nFormat settings, BVOP            : 2\nFormat settings, QPel            : No\nFormat settings, GMC             : No warppoints\nFormat settings, Matrix          : Default (H.263)\nMuxing mode                      : Packed bitstream\nCodec ID                         : XVID\nCodec ID/Hint                    : XviD\nDuration                         : 1h 15mn\nBit rate                         : 2 585 Kbps\nWidth                            : 720 pixels\nHeight                           : 304 pixels\nDisplay aspect ratio             : 2.35:1\nFrame rate                       : 25.000 fps\nColor space                      : YUV\nChroma subsampling               : 4:2:0\nBit depth                        : 8 bits\nScan type                        : Progressive\nCompression mode                 : Lossy\nBits/(Pixel*Frame)               : 0.472\nStream size                      : 1.36 GiB (95%)\nWriting library                  : XviD 64\n\nAudio\nID                               : 1\nFormat                           : MPEG Audio\nFormat version                   : Version 1\nFormat profile                   : Layer 3\nMode                             : Joint stereo\nMode extension                   : MS Stereo\nCodec ID                         : 55\nCodec ID/Hint                    : MP3\nDuration                         : 1h 15mn\nBit rate mode                    : Variable\nBit rate                         : 120 Kbps\nNominal bit rate                 : 128 Kbps\nChannel(s)                       : 2 channels\nSampling rate                    : 48.0 KHz\nCompression mode                 : Lossy\nStream size                      : 64.6 MiB (4%)\nAlignment                        : Aligned on interleaves\nInterleave, duration             : 24 ms (0.60 video frame)\n\n\n[img]http://i.imgur.com/1iAen.png[/img]\n","torrent":{"xt":"urn:btih:254ae0f6540ec92eafa9f92763b0fd023fc56dad","amp;dn":"Carnage+2011+CAM+XviD+-+MiSTERE","amp;tr":["udp%3A%2F%2Ftracker.openbittorrent.com%3A80","udp%3A%2F%2Fopen.demonii.com%3A1337","udp%3A%2F%2Ftracker.coppersurfer.tk%3A6969","udp%3A%2F%2Fexodus.desync.com%3A6969"],"infoHash":"254ae0f6540ec92eafa9f92763b0fd023fc56dad","infoHashBuffer":{"type":"Buffer","data":[37,74,224,246,84,14,201,46,175,169,249,39,99,176,253,2,63,197,109,173]},"announce":[],"urlList":[]}}